<svg version="1.1" id="레이어_1" xmlns="http://www.w3.org/2000/svg" xmlns:xlink="http://www.w3.org/1999/xlink" x="0px"
	 y="0px" viewBox="0 0 514.3 394.9" style="enable-background:new 0 0 514.3 394.9;" xml:space="preserve">
<style type="text/css">
	.st0{
    fill:#C9CACA;
    <!-- stroke: #C9CACA; -->
    stroke-width: 4px;
    stroke-dasharray: 1000px;
    stroke-dashoffset: 100px;
  }
</style>
<g>
	<path class="st0" d="M103,203.4c-26.6,19.3-34.8,57-21.4,86.5c14.8,32.7,51.6,51.2,86.6,49c19.4-1.3,38.2-8.1,54.4-18.6
		c15.6-10.2,30.2-24.2,37.7-41.6c14.8-34.2-8.5-68.9-40-82.9c-21.8-9.7-46.4-10.3-69.9-8.6c-11.1,0.8-22.5,1.4-33.5,3.7
		c-8.2,1.7-16.4,5.1-20.2,13c-1.4,2.9,2.9,5.4,4.3,2.5c3.5-7.2,11.2-9.6,18.6-11c9.2-1.7,18.7-2.3,28-3c19.2-1.5,38.9-1.7,57.6,3.4
		c30.4,8.3,61.5,36.9,53.6,71.3c-3.9,17-16,31.2-29.3,41.9c-14,11.3-30.6,19.5-48.2,23.1c-32.8,6.7-68.9-4.8-88.5-32.7
		c-19.8-28.1-15.8-70.8,12.8-91.7C108.1,205.8,105.6,201.5,103,203.4L103,203.4z"/>
</g>
<g>
	<path class="st0" d="M95.4,204.5c-27.1-6.5-55.8,0.1-77.5,17.4c-2.5,2,1,5.5,3.5,3.5c20.3-16.2,47.4-22.1,72.6-16.1
		C97.2,210,98.6,205.2,95.4,204.5L95.4,204.5z"/>
</g>
<g>
	<path class="st0" d="M150.1,183.3c-13.9-7.8-28.5-14.1-44.2-17.1c-16.1-3-32.5-3.1-48.8-3.1c-3.2,0-3.2,5,0,5
		c15.8,0,31.8,0,47.4,2.9c15.3,2.9,29.4,9,43,16.6C150.4,189.2,152.9,184.9,150.1,183.3L150.1,183.3z"/>
</g>
<g>
	<path class="st0" d="M122.5,257.3c-0.9,4.1,1.6,8.6,5.8,9.4c1.3,0.3,2.7-0.4,3.1-1.7c0.3-1.2-0.4-2.8-1.7-3.1
		c-1.5-0.3-2.7-1.7-2.4-3.2C128,255.5,123.2,254.2,122.5,257.3L122.5,257.3z"/>
</g>
<g>
	<path class="st0" d="M154.7,249.3c1.3,2.4,2.6,4.7,3.8,7.1c1.5,2.8,5.9,0.3,4.3-2.5c-1.3-2.4-2.6-4.7-3.8-7.1
		C157.5,244,153.1,246.5,154.7,249.3L154.7,249.3z"/>
</g>
<g>
	<path class="st0" d="M136.2,276.2c-2.9,3-8.1,11.4-1.4,13.4c3.1,0.9,7.1-1,10-2.1c4.4-1.6,8.6-3.6,12.7-5.8c5-2.7,9.9-5,15.2-1.6
		c2,1.3,3.8,3.1,5.5,4.9c0.7,0.7,2.3,2.1,2.4,3c-0.6,1.6-1.2,3.2-1.8,4.7c-1,0.3-2.1,0.6-3.1,0.8c-5,0.6-10.9-1.2-15.7-2.5
		c-5.3-1.5-10.4-3.4-15.4-5.8c-2.9-1.4-5.4,2.9-2.5,4.3c9.7,4.7,21,8.9,31.9,9.1c7.5,0.1,15.2-6,10.4-13.7
		c-4.3-7.1-13.1-13.4-21.6-11.1c-5.1,1.3-9.5,4.6-14.2,6.8c-2.8,1.3-5.7,2.4-8.7,3.3c-0.5,0.2-3,1.3-3.3,0.8c-0.6-0.9,2.8-4.7,3.1-5
		C142,277.4,138.4,273.9,136.2,276.2L136.2,276.2z"/>
</g>
<g>
	<path class="st0" d="M100.3,287c-3.5-0.2-5.7,2.3-6.4,5.6c-0.8,3.8,1.1,7.4,3.9,10c6.4,5.8,18.7,6.8,26.1,2.5
		c8.5-5,6.4-15.2-2.4-18.1c-10.2-3.3-23.2-4.2-33,0.6c-2.9,1.4-0.4,5.7,2.5,4.3c5.6-2.7,11.7-2.8,17.8-2.1
		c3.9,0.4,16.5,0.9,15.5,7.2c-0.9,6-10.8,6-15.3,5.3c-2.5-0.4-4.9-1.2-7-2.7c-0.9-0.6-6.5-7.8-1.8-7.6
		C103.5,292.1,103.5,287.1,100.3,287L100.3,287z"/>
</g>
<g>
	<path class="st0" d="M186.8,258c-3.5,1.9-7.6,4.6-8.2,9c-0.5,3.5,1.5,6.5,4.5,8.1c7.3,3.9,20.6,3.3,26.9-2
		c6.4-5.3,6.6-14.6-0.6-19.3c-9-5.8-18.8-0.2-26.4,5.1c-2.6,1.8-0.1,6.2,2.5,4.3c4.5-3.2,9.7-7.1,15.5-7c5.8,0.1,11.8,5.6,7.4,11.3
		c-3.9,5.1-11.3,5-17.1,4.5c-1.9-0.2-5.7-0.4-7-2.1c-1.2-1.6-0.2-3.7,0.9-4.9c1-1.1,2.8-2,4.1-2.7
		C192.1,260.8,189.6,256.5,186.8,258L186.8,258z"/>
</g>
<g>
	<path class="st0" d="M199.3,327.8c5.8,14.7,20,23.4,34.2,28.7c16.1,6,33.8,7.4,50.7,4.2c14.3-2.7,30.3-9.1,36.1-23.6
		c2.6-6.6,2.8-14.1-0.6-20.4c-3.5-6.4-9.9-10.6-16-14.2c-8.5-5-17.7-9-27.2-11.9c-5.1-1.5-10.2-2.7-15.4-3.6
		c-3.5-0.6-8-2.1-11.1-0.1c-0.7,0.4-1.3,1.3-1.2,2.2c0.2,1.6,0.5,2.3,1.9,3.3c0.7,0.5,1.8,0.4,2.5,0c0.2-0.1,0.3-0.2,0.5-0.3
		c2.7-1.7,0.2-6-2.5-4.3c-0.2,0.1-0.3,0.2-0.5,0.3c0.8,0,1.7,0,2.5,0c-0.2-0.1-0.4-0.3-0.6-0.4c0.4,0.7,0.8,1.4,1.2,2.2
		c0-0.2,0-0.5-0.1-0.7c-0.4,0.7-0.8,1.4-1.2,2.2c1.7-1.1,5.4,0.3,7.3,0.6c2.3,0.4,4.6,0.8,6.9,1.4c4.6,1,9.1,2.3,13.5,3.9
		c8.6,3,16.9,7,24.5,11.9c8,5.2,14.4,12.4,12.2,22.6c-1.9,8.6-8.5,14.8-16.2,18.7c-16.1,8.1-36.3,8.9-53.6,5.1
		c-16.4-3.6-36.4-12.1-42.9-28.8C202.9,323.5,198.1,324.8,199.3,327.8L199.3,327.8z"/>
</g>
<g>
	<path class="st0" d="M212.9,345.3c18,0.9,36.5-7.9,50.5-18.8c5.4-4.2,10.5-9.9,10.7-17.2c0.2-6-4.6-12.1-10.8-8.7
		c-2.8,1.5-0.3,5.9,2.5,4.3c4.6-2.5,2.8,7.6,2.1,9c-1.1,2.4-2.9,4.4-4.7,6.1c-4.2,4-9.4,7-14.4,9.9c-11,6.3-23,11-35.9,10.3
		C209.7,340.1,209.7,345.1,212.9,345.3L212.9,345.3z"/>
</g>
<g>
	<path class="st0" d="M261.6,350.8c13.5-4.6,27.8-9.8,36.3-22.1c4.5-6.4,10.2-25.1-3-25.8c-3.2-0.2-3.2,4.8,0,5
		c5.7,0.3,2.6,10.6,1.4,13.3c-1.9,4.4-5,8.2-8.6,11.3c-7.8,6.8-17.9,10.1-27.5,13.4C257.2,347.1,258.5,351.9,261.6,350.8
		L261.6,350.8z"/>
</g>
<g>
	<path class="st0" d="M198.7,335.9c-5.2,2.2-11.2,5.3-12.4,11.4c-0.9,4.6,1.2,9.5,5.9,10.9c3.1,0.9,4.4-3.9,1.3-4.8
		c-3.2-0.9-2.8-5.2-1.3-7.4c2.1-2.9,5.8-4.4,9-5.7C204.2,339,201.7,334.6,198.7,335.9L198.7,335.9z"/>
</g>
<g>
	<path class="st0" d="M233.1,332.9c3.5,4.9,0.5,11.4-4.5,14.1c-5.4,2.9-11.8,2.7-17.7,2.5c-3.2-0.1-3.2,4.9,0,5
		c8.1,0.2,17.7,0.2,23.9-5.9c4.8-4.8,6.7-12.4,2.6-18.2C235.6,327.8,231.2,330.3,233.1,332.9L233.1,332.9z"/>
</g>
<g>
	<path class="st0" d="M265.9,289.1c-12.4-16.6,6.2-34,18-44.2c7-6,14.7-11.9,23.7-14.5c9.7-2.8,19.7-0.8,28.6,3.4
		c6.9,3.2,13.8,7.9,17.6,14.7c4.6,8.2,3.1,17.6-1.8,25.3c-10.2,15.8-30.1,19.6-46.7,25c-3,1-1.7,5.8,1.3,4.8
		c15.7-5.1,33.4-8.8,45.1-21.4c9.8-10.6,13.8-26.1,4.9-38.6c-8.6-12.2-26.2-20.1-40.9-19.5c-16.5,0.6-29.9,12.1-41.4,22.8
		c-11.8,11-24.5,29.1-12.7,44.8C263.5,294.2,267.8,291.7,265.9,289.1L265.9,289.1z"/>
</g>
<g>
	<path class="st0" d="M339.4,294.3c8.4-5.1,18.5-5.7,27.9-3.1c8.7,2.4,17.5,10.4,9,19.1c-5.9,6.1-16.3,8.6-24.3,10.3
		c-9.6,2-19.4,2.3-29.1,1.1c-3.2-0.4-3.2,4.6,0,5c12.8,1.6,25.8,0.6,38.2-3.2c9.4-2.9,21.7-7.5,23.6-18.5
		c1.6-9.3-6.8-15.6-14.7-18.1c-10.9-3.5-23.2-2.8-33.1,3.2C334.1,291.7,336.6,296,339.4,294.3L339.4,294.3z"/>
</g>
<g>
	<path class="st0" d="M309.5,349c10.1,3.4,20.3,5.9,30.8,7.6c3.1,0.5,4.5-4.3,1.3-4.8c-10.5-1.7-20.8-4.2-30.8-7.6
		C307.7,343.2,306.4,348,309.5,349L309.5,349z"/>
</g>
<g>
	<path class="st0" d="M189.4,341c1.1,8.7-1,17.5-6.3,24.6c-5.1,6.7-21.3,17.4-26.2,4.6c-1.1-3-6-1.7-4.8,1.3
		c5,13,20.4,10.3,29.2,3.1c9.8-8,14.8-21.1,13.1-33.6C194,337.9,189,337.8,189.4,341L189.4,341z"/>
</g>
<g>
	<path class="st0" d="M243.2,204.7c-3.4-5.5-1.2-13.8-0.7-19.9c0.6-7,1.1-13.9,1.7-20.9c0.3-3.2-4.7-3.2-5,0
		c-0.7,8.2-1.3,16.5-2,24.7c-0.5,6.3-1.8,12.9,1.7,18.6C240.6,210,244.9,207.5,243.2,204.7L243.2,204.7z"/>
</g>
<g>
	<path class="st0" d="M232.3,164.3c-24,3.3-48.3,4.3-72.5,3c-23.1-1.2-47.1-3.8-69.3-10.6c-19-5.8-40.1-19.4-40.7-41.5
		C49.2,95.4,65.8,77.3,81,66.5c15.1-10.8,32.9-17.5,51-21.3c9.1-1.9,18.2-3.1,27.5-3.8c4.3-0.3,8.3-0.8,12.1-2.8
		c4.8-2.5,9.2-5.6,14.1-7.9c18.7-8.7,39.7-11,60-10.3c10.6,0.4,21.1,1.5,31.6,3.2c9.2,1.5,19.3,2.9,27.3,8.2
		c10.4,6.9,12.8,19.8,9.6,31.3c-3.1,11.2-11.1,20.3-19.4,28.1c-8.5,8.1-17.8,15.4-25.3,24.5c-3.2,4-6,8.2-8.3,12.8
		c-2.4,4.8-4.5,10.9-10,13c-3,1.1-1.7,5.9,1.3,4.8c9.2-3.4,11.3-13.3,16-20.8c6.4-10.3,15.9-18.2,24.8-26.2
		c14.9-13.5,30.4-30.7,26.5-52.4c-4.1-22.7-28.8-26.4-47.9-29c-21.6-3-43.9-3.9-65.4,0.7c-10.7,2.3-21.2,6.1-30.7,11.6
		c-5.7,3.3-9.7,5.8-16.5,6.3c-4.9,0.4-9.8,0.8-14.7,1.5c-20.1,2.7-40.1,8.5-57.7,18.7C70.4,66.3,54.7,81,47.7,99.3
		c-7.7,20.3,2.1,40.6,19.4,52.2c10.5,7.1,23,10.7,35.3,13.3c13.8,2.9,27.9,4.9,42,6.3c29.7,2.8,59.7,2,89.2-2.1
		C236.8,168.7,235.4,163.8,232.3,164.3L232.3,164.3z"/>
</g>
<g>
	<path class="st0" d="M289.2,101c24.8-16.9,52.4-29.3,81.7-36.2c7.1-1.7,14.3-3.1,21.6-4.1c6.2-0.8,13.3-1.2,19.1,1.5
		c7.6,3.4,9.8,11.9,7.8,19.5c-2,7.5-7.4,13.6-12.4,19.3c-1.5,1.7-0.4,4.1,1.8,4.3c22.6,1.7,46.3,3.5,66.8,13.9
		c9.2,4.7,23,12.6,18.8,25c-4.1,11.9-18.5,15.9-29.1,19.6c-46.7,16.5-96.2,24.8-145.7,24.5c-23.9-0.1-50.7-1.6-69.5-18.3
		c-2.4-2.1-5.9,1.4-3.5,3.5c17.6,15.6,41.4,18.9,64.1,19.6c27.4,0.8,55-1.2,82.1-5.6c27.6-4.5,54.8-11.7,80.9-21.5
		c10.2-3.8,21.3-8.8,25.4-19.9c3.9-10.7-2.4-19.4-10.9-25.4c-22.9-16.2-52.2-18.6-79.3-20.6c0.6,1.4,1.2,2.8,1.8,4.3
		c9.1-10.3,20.5-25.6,11.6-39.6c-7.8-12.4-25-10.1-37.2-8c-35.2,5.9-68.8,19.7-98.2,39.8C284,98.5,286.5,102.8,289.2,101L289.2,101z
		"/>
</g>
<g>
	<path class="st0" d="M183.1,119.9c-0.9,11.2,9.8,20.6,17.7,27c9.3,7.4,19.9,12.8,31.3,16.1c3.1,0.9,4.4-3.9,1.3-4.8
		c-9.7-2.8-18.9-7.2-27-13.2c-7.5-5.5-19.1-14.7-18.3-25C188.4,116.7,183.4,116.7,183.1,119.9L183.1,119.9z"/>
</g>
<g>
	<path class="st0" d="M256.7,164.6c24.2-5.7,47.9-13,71.1-21.9c3-1.1,1.7-6-1.3-4.8c-23.2,8.9-46.9,16.3-71.1,21.9
		C252.2,160.5,253.6,165.3,256.7,164.6L256.7,164.6z"/>
</g>
<g>
	<path class="st0" d="M196.3,173.4c-5,0.8-38.9,7-30.1,17.2c2.1,2.4,5.6-1.1,3.5-3.5c-0.1-0.1,12.1-5,13.5-5.4
		c4.7-1.5,9.5-2.5,14.4-3.4C200.8,177.6,199.5,172.8,196.3,173.4L196.3,173.4z"/>
</g>
<g>
	<path class="st0" d="M388,191.6c15.3-0.5,30.5,0.5,45.5,3.3c7.3,1.4,14.5,3.1,21.6,5.3c6.2,1.9,13.1,3.7,18.2,8.1
		c6.2,5.3,5.1,13.1-1.5,17.6c-5.7,3.9-13.5,4.8-20.1,6.3c-15.5,3.4-31.1,6.1-46.8,8.1c-1.9,0.2-3.6,2.7-1.8,4.3
		c3.9,3.2,8.3,7,10.1,11.9c2.3,6.4-2.3,10.6-7.7,12.9c-10.4,4.4-22.2,6.5-33.5,7.2c-3.2,0.2-3.2,5.2,0,5c8.1-0.5,16.1-1.8,23.9-3.8
		c6-1.6,12.8-3.4,17.7-7.3c11.5-9.3,1.5-22.4-7-29.4c-0.6,1.4-1.2,2.8-1.8,4.3c18.7-2.4,37.3-5.6,55.7-9.9
		c6.8-1.6,13.9-3.6,18.5-9.3c3.6-4.5,4.8-10.4,2.2-15.7c-2.7-5.4-8.4-8.8-13.8-11.1c-8.1-3.4-16.8-5.6-25.3-7.5
		c-17.8-4-36-5.6-54.1-5C384.8,186.7,384.8,191.7,388,191.6L388,191.6z"/>
</g>
<g>
	<path class="st0" d="M258.2,189.5c4.1,17.6,8.8,35,14,52.3c0.9,3.1,5.8,1.8,4.8-1.3c-5.2-17.3-9.9-34.7-14-52.3
		C262.3,185.1,257.5,186.4,258.2,189.5L258.2,189.5z"/>
</g>
<g>
	<path class="st0" d="M272.5,196.4c16.9,12.8,37.3,19.8,58.5,20.4c3.2,0.1,3.2-4.9,0-5c-20.3-0.5-39.7-7.4-55.9-19.7
		C272.5,190.2,270,194.5,272.5,196.4L272.5,196.4z"/>
</g>
</svg>
