<svg version="1.1" id="레이어_1" xmlns="http://www.w3.org/2000/svg" xmlns:xlink="http://www.w3.org/1999/xlink" x="0px"
	 y="0px" viewBox="0 0 546.3 80.9" style="enable-background:new 0 0 546.3 80.9;" xml:space="preserve">
<style type="text/css">
	.st0{fill:#231815;}
</style>
<g>
	<path class="st0" d="M118.7,15.2c-3.1,0.7-1.8,5.6,1.3,4.8c11.2-2.7,19.2,8.8,17.6,19c-1.6,10-9.2,18-18.5,21.5
		c-7.6,2.9-16.2,3-24,0.6c-4.3-1.3-8.3-3.5-11.6-6.6c-2-1.9-4.6-4.9-5.6-8c0.8-2.5,1.4-5.1,1.6-7.8c0.2-2.1-2.9-3.4-4.3-1.8
		c-2.4,3-3.1,6.2-2.5,9.4c-3.2,8-10,14.2-17.7,18.3C46.2,69.2,29,74.3,22,63.9c-6.8-10,1.4-25.4,7.9-33.5c7.2-8.9,17-15.2,28-18
		c3.1-0.8,1.8-5.6-1.3-4.8c-14,3.6-26.2,12.4-34,24.5c-6.5,10.1-12.6,27-2.6,37c9.5,9.4,25.9,5.5,36.5,0.3c7.9-3.9,14.8-9.7,19-17.1
		c3.2,5,8.6,9.2,13.2,11.4c10.5,5.1,23.1,5.3,33.8,0.8c11.6-4.9,21.3-16.7,20.6-29.9C142.3,22.5,131.1,12.2,118.7,15.2z"/>
	<path class="st0" d="M190.2,47.4c2.9-1.3,0.4-5.7-2.5-4.3c-6.7,3.1-13.9,4.6-21.2,4.2c-3.4-0.2-7-0.6-10.3-1.7
		c-0.5-0.2-1.1-0.4-1.7-0.6c4.2,0.3,8.4,0,12.5-1.1c3.6-0.9,10.7-2.8,12.2-6.7c3.7-10.1-21.7-7.4-25.8-6c-9.8,3.5-9.9,14.8-0.4,18.5
		C164.8,54.4,178.8,52.6,190.2,47.4z M155.4,35.7c3.2-1.1,7.1-0.9,10.5-0.8c1.6,0,3.3,0.1,4.9,0.2c2.7,0.2,4-0.3,2,1.2
		c-5.7,4.3-15.3,4.4-22,3.3C151.5,37.7,153.7,36.3,155.4,35.7z"/>
	<path class="st0" d="M320.7,37.9c-0.4-0.1-0.8,0-1.1,0.1c-0.2,0-0.4,0-0.6,0c-5.9,0.7-15,4.2-16.3,10.9c-0.1,0.5-0.1,1-0.1,1.5
		c-0.5-0.2-1-0.3-1.7,0c-11.4,4.8-23.9,5.9-35.9,2.5c-2.5-0.7-5.4-1.6-7.2-3.6c-3-3.3,1-7.1,3.9-8.8c5.5-3.3,12-4.1,18.3-3.3
		c3.2,0.4,3.2-4.6,0-5c-7.9-1-16.5,0.6-23.1,5.4c-2.1,1.6-3.8,3.6-4.6,5.9c-1.1-0.5-2.4-0.4-3.2,0.9c-3.5,5.7-14.3,4.9-20.1,4.8
		c-4.2-0.1-8.9-0.3-13.3-1.3c7.4-7.1,12.1-17.6,9.3-27.9c-1.2-4.5-4-9.8-9.4-9.2c-5.5,0.7-11.1,5.9-14.2,10.2
		c-6.8,9.4-5.4,22.1,4.1,28.1c-0.3,0.2-0.6,0.3-0.9,0.5c-11.5,6.2-25.5,8-38.3,9.8c-3.2,0.5-1.8,5.3,1.3,4.8
		c14.5-2.1,30.9-4.2,43.3-12.7c7.4,2.4,15.9,2.8,23.5,2.4c6-0.3,13.1-0.7,17.3-5.3c0.4,1.4,1.1,2.7,2.3,4c4.9,5.1,13.6,6.2,20.3,6.8
		c9.5,0.8,19-0.8,27.7-4.5c1-0.4,1.5-1.3,1.6-2.1c3.3,3.5,12.4,3.5,15.9,3.2c5.6-0.4,17.3-2.3,18.7-9.1
		C340.1,39.5,325.4,38.5,320.7,37.9z M208,44.9c-6.4-3.9-7.4-12.4-3.9-18.6c2.4-4.4,12.3-15.4,15.7-6.6c3.8,10-1.8,20-9.6,26.3
		C209.4,45.7,208.7,45.3,208,44.9z M320.6,51.2c-2.2,0.2-11.2,0.8-12.2-1.3c-1.9-3.7,8.7-6.8,10.7-7c0.3,0,0.5-0.1,0.7-0.2
		c2.2,0.3,4.4,0.7,6.5,1.2c0.8,0.2,4.6,0.8,5.1,1.4C334.7,49.2,322.5,51,320.6,51.2z"/>
	<path class="st0" d="M426.3,35.4c-5.2-4.2-14.2-3.1-20.3-2.6c-4.4,0.4-8.7,1.1-13,2.1c-1.8,0.4-10.8,4.1-11.5,3.3
		c-0.5-0.5-0.3-2-0.6-2.7c-0.5-1.2-1.2-2.1-2.2-3c-1.9-1.6-4.4-2.3-6.8-2.7c-7.7-1.1-17,0.3-24.3,2.6c-5.6,1.7-9.3,6.1-7.5,12.1
		c2,6.6,8.8,8.9,14.9,10.3c3.1,0.8,4.5-4.1,1.3-4.8c-4-1-14.9-4.1-11.3-10.5c2.3-4.2,14.6-4.5,18.6-4.8c2.5-0.2,5.1-0.3,7.6,0
		c1,0.1,1.9,0.3,2.8,0.7c2.1,1,1.8,1.7,2.4,3.5c0.7,2.6,1.5,4.5,4.7,4.6c4,0.1,8.5-2.7,12.4-3.7c5.6-1.4,11.3-2.2,17-2.4
		c2.6-0.1,5.4-0.2,8,0.2c2.3,0.3,3.6,0.2,4.1,2.8c0.4,2.3,0.1,2.1-1.6,3.4c-4.7,3.5-10.2,5.5-16.1,6.1c-3.2,0.3-3.2,5.3,0,5
		c7-0.7,13.7-3,19.4-7.3C428.3,44.5,431.2,39.4,426.3,35.4z"/>
	<path class="st0" d="M487.3,45.1c-7.6,2.8-15.4,4.2-23.5,3.9c-3.9-0.1-8-0.6-11.9-1.7c4.6-0.4,9.1-1.4,13.4-3.1
		c3.2-1.2,9.8-3.1,9.1-7.6c-0.6-4.4-7.5-6.1-11-6.6c-6-0.9-12.6,0.2-18.1,2.6c-10.4,4.5-6.5,15.6,2.7,18.8c12.8,4.5,28,3.2,40.5-1.4
		C491.7,48.8,490.4,44,487.3,45.1z M447.1,37.3c3.4-1.6,7.6-2.5,11.3-2.6c1.9-0.1,3.8,0,5.7,0.5c1.3,0.3,2.6,0.7,3.9,1.3
		c1.8-0.1,2.1,0.1,0.8,0.6c-1.7,2.3-8.3,3.6-11.1,4.3c-4.2,1-8.4,1.3-12.7,1.1c-0.1,0-0.2,0-0.3,0C443.7,40.8,444,38.8,447.1,37.3z"
		/>
	<path class="st0" d="M526.9,20.7c-8.9,5.2-16.6,11.8-23.2,19.7c-2,2.5,1.5,6,3.5,3.5c6.3-7.6,13.6-13.9,22.1-18.9
		C532.2,23.4,529.7,19,526.9,20.7z"/>
	<path class="st0" d="M510.9,48.3c-3.8-0.8-7.6,0.2-10.2,2.8c-1.5,0.3-2.7,1.8-2.1,3.2c-0.2,1.9,2.1,3.3,3.7,2.4
		c4.2,1.2,8.9-0.9,10.4-5.4C513.1,50.1,512.2,48.6,510.9,48.3z"/>
</g>
</svg>
